%
T1C0.023F200S100
X004875Y051750
X006125Y034250
X006250Y021000
X006250Y027125
X006329Y048316
X006750Y033250
X007375Y026500
X007395Y010152
X008000Y027375
X008625Y018875
X009024Y008209
X009250Y021125
X009750Y019875
X010653Y015188
X011405Y015729
X012375Y013125
X013000Y021750
X013125Y005625
X013250Y022625
X013625Y005125
X014000Y024750
X014750Y011125
X016100Y004475
X016750Y015125
X016795Y015729
X017000Y005625
X017000Y004951
X017000Y038750
X017375Y008000
X017750Y015750
X018000Y013000
X018125Y038125
X018625Y012125
X019113Y012847
X019125Y009875
X021432Y015040
X022000Y004375
X022000Y006250
X022375Y007375
X022999Y042363
X023000Y028125
X023625Y043875
X023813Y037913
X023813Y040671
X023876Y014601
X024001Y016419
X024691Y026947
X025000Y040000
X025255Y047501
X025380Y016544
X025505Y010215
X025625Y022250
X025813Y045750
X026195Y041747
X026625Y020805
X026633Y023688
X026759Y038603
X026884Y026383
X027135Y013912
X027250Y008250
X027633Y014787
X028075Y019749
X028513Y019000
X029265Y034843
X029704Y036848
X030750Y009750
X031333Y036159
X033125Y023750
X034590Y041340
X035125Y024625
X035250Y025750
X036125Y016375
X036660Y017108
T4C0.039F200S100
X007125Y034625
X007125Y038625
X007375Y022875
X007375Y024125
X007625Y040125
X007625Y044125
X008250Y000750
X008250Y004750
X010000Y006500
X010000Y010500
X011375Y022875
X011375Y024125
X012875Y026375
X012875Y030375
X012875Y032000
X012875Y036000
X012875Y037500
X012875Y041500
X014375Y044375
X016375Y006250
X016375Y010250
X016750Y046500
X017750Y046500
X018125Y006250
X018125Y010250
X018750Y046500
X020116Y012724
X020116Y013724
X020116Y014724
X021855Y044375
X022623Y012724
X022623Y013724
X022623Y014724
X023876Y017484
X023876Y021484
X024137Y036848
X024941Y012787
X024941Y013787
X024941Y014787
X025004Y017484
X025004Y021484
X027125Y028250
X027125Y032250
X027375Y012000
X027375Y016000
X027375Y022625
X027375Y026625
X027500Y038625
X027500Y042625
X027500Y044250
X027500Y048250
X027875Y006250
X027875Y010250
X028137Y036848
X029140Y016920
X029140Y020920
X030091Y019113
X030331Y034845
X030331Y035845
X030331Y036845
X032088Y021056
X033088Y021056
X033750Y038875
X033750Y042875
X033750Y044625
X033750Y048625
X034000Y028625
X034000Y032625
X034088Y021056
X034091Y019113
X034125Y006375
X034125Y010375
X034125Y011875
X034125Y015875
X034125Y023125
X034125Y027125
T3C0.035F200S100
X004875Y048375
X004875Y050375
X008125Y008250
X008125Y010250
X009375Y048375
X009375Y050375
X011375Y048375
X011375Y050375
X012721Y044369
X012721Y045369
X016000Y019000
X016000Y020000
X016000Y021000
X016000Y022000
X016000Y023000
X016000Y024000
X016000Y025000
X016000Y026000
X016000Y027000
X016000Y028000
X016000Y029000
X016000Y030000
X016000Y031000
X016000Y032000
X016000Y033000
X016000Y034000
X016000Y035000
X016000Y036000
X016000Y037000
X016000Y038000
X016000Y039000
X016000Y040000
X016000Y041000
X016000Y042000
X022000Y019000
X022000Y020000
X022000Y021000
X022000Y022000
X022000Y023000
X022000Y024000
X022000Y025000
X022000Y026000
X022000Y027000
X022000Y028000
X022000Y029000
X022000Y030000
X022000Y031000
X022000Y032000
X022000Y033000
X022000Y034000
X022000Y035000
X022000Y036000
X022000Y037000
X022000Y038000
X022000Y039000
X022000Y040000
X022000Y041000
X022000Y042000
X024375Y045750
X024375Y047750
X026000Y024375
X026000Y026375
X026132Y038603
X026132Y040603
X026375Y008250
X026375Y010250
T2C0.031F200S100
X004250Y004063
X004250Y004850
X004250Y005638
X004250Y006425
X004250Y007213
X004250Y008000
X004250Y010563
X004250Y011350
X004250Y012138
X004250Y012925
X004250Y013713
X004250Y014500
X004375Y017688
X004375Y018475
X004375Y019263
X004375Y020050
X004375Y020838
X004375Y021625
X004375Y023938
X004375Y024725
X004375Y025513
X004375Y026300
X004375Y027088
X004375Y027875
X004375Y032800
X004375Y033588
X004375Y034375
X004375Y037050
X004375Y037838
X004375Y038625
X004250Y041050
X004250Y041838
X004250Y042625
X008422Y029797
X008422Y032749
X008750Y035250
X008781Y038249
X008875Y040625
X008906Y043624
X009406Y029797
X009406Y032749
X009750Y035250
X009765Y038249
X009875Y040625
X009890Y043624
X010390Y029797
X010390Y032749
X010750Y035250
X010797Y038297
X010875Y040625
X010922Y043672
X011374Y029797
X011422Y032797
X011578Y010047
X011625Y007047
X011625Y008031
X011625Y009015
X014578Y007047
X014578Y008031
X014578Y009015
X014578Y009999
X020453Y010172
X020500Y007172
X020500Y008156
X020500Y009140
X023453Y007172
X023453Y008156
X023453Y009140
X023453Y010124
X024388Y035000
X025175Y035000
X025963Y035000
X026750Y035000
X029078Y032172
X029078Y042547
X029078Y047922
X029125Y029172
X029125Y030156
X029125Y031140
X029203Y026922
X029125Y039547
X029125Y040531
X029125Y041515
X029125Y044922
X029125Y045906
X029125Y046890
X029250Y023922
X029250Y024906
X029250Y025890
X029328Y009922
X029375Y006922
X029375Y007906
X029375Y008890
X029453Y015297
X029500Y012297
X029500Y013281
X029500Y014265
X032078Y029172
X032078Y030156
X032078Y031140
X032078Y032124
X032078Y039547
X032078Y040531
X032078Y041515
X032078Y042499
X032078Y044922
X032078Y045906
X032078Y046890
X032078Y047874
X032203Y023922
X032203Y024906
X032203Y025890
X032203Y026874
X032328Y006922
X032328Y007906
X032328Y008890
X032328Y009874
X032453Y012297
X032453Y013281
X032453Y014265
X032453Y015249
T5C0.042F200S100
X013375Y003125
X013920Y002005
X014465Y003125
X015010Y002005
X015555Y003125
X016100Y002005
X016645Y003125
X017190Y002005
X017735Y003125
X018280Y002005
X018825Y003125
X019370Y002005
X019915Y003125
X020460Y002005
X021005Y003125
X037125Y040250
X037125Y041340
X037125Y042430
X037125Y043520
X037125Y044610
X037125Y045700
X037125Y046790
X037125Y047880
X037250Y023875
X037250Y024965
X037250Y026055
X037250Y027145
X037250Y028235
X037250Y029325
X037250Y030415
X037250Y031505
X037375Y007375
X037375Y008465
X037375Y009555
X037375Y010645
X037375Y011735
X037375Y012825
X037375Y013915
X037375Y015005
X038245Y040795
X038245Y041885
X038245Y042975
X038245Y044065
X038245Y045155
X038245Y046245
X038245Y047335
X038370Y024420
X038370Y025510
X038370Y026600
X038370Y027690
X038370Y028780
X038370Y029870
X038370Y030960
X038495Y007920
X038495Y009010
X038495Y010100
X038495Y011190
X038495Y012280
X038495Y013370
X038495Y014460
T7C0.120F200S100
X010630Y002565
X023750Y002565
X037685Y037505
X037685Y050625
X037810Y021130
X037810Y034250
X037935Y004630
X037935Y017750
T6C0.043F200S100
X003659Y008551
X003659Y015051
X003784Y022176
X003784Y028426
X003784Y034926
X003784Y039176
X003659Y043176
X027301Y035590
T8C0.137F200S100
X003125Y053500
X004000Y030250
X004375Y001500
X033250Y035875
X039375Y001375
X039375Y053375
M30
