%
T1C0.028F200S100
X016125Y044625
X016875Y018000
X018000Y044875
X019750Y038750
X019875Y045625
X025000Y012000
X028250Y012500
X032500Y042000
X034250Y018500
X035000Y021625
X041625Y017875
X042875Y012000
X043625Y009625
X044625Y004750
X045250Y022000
X046000Y023000
X046500Y012125
X046625Y015500
X046500Y018412
X046500Y027750
X047250Y009625
X047250Y024000
X047500Y025000
X047750Y028125
X048000Y017625
X048125Y016125
X048250Y005250
X048250Y026125
X048750Y027875
X048875Y006000
X050125Y014000
X050375Y034500
X050875Y036000
X051250Y009625
X051500Y035000
T4C0.039F200S100
X004375Y042500
X004375Y045250
X004500Y002625
X004500Y006750
X004500Y011000
X004500Y015375
X004500Y019250
X004500Y023375
X004500Y027375
X004500Y031500
X004500Y035625
X004500Y039625
X008375Y042500
X008375Y045250
X008500Y002625
X008500Y006750
X008500Y011000
X008500Y015375
X008500Y019250
X008500Y023375
X008500Y027375
X008500Y031500
X008500Y035625
X008500Y039625
X014750Y002625
X014750Y006875
X014750Y011000
X014750Y015250
X014750Y019250
X014750Y023375
X014750Y027500
X014750Y031500
X014750Y035625
X014750Y037500
X014750Y039375
X014750Y041375
X017000Y046375
X018000Y042500
X018000Y046375
X018750Y002625
X018750Y006875
X018750Y011000
X018750Y015250
X018750Y019250
X018750Y023375
X018750Y027500
X018750Y031500
X018750Y035625
X018750Y037500
X018750Y039375
X018750Y041375
X019000Y046375
X020625Y006875
X020625Y010875
X021625Y006875
X021625Y010875
X022000Y042500
X023500Y033000
X025625Y033000
X025625Y037000
X023500Y037000
X026250Y040125
X027250Y033000
X027250Y037000
X027750Y004500
X027750Y005875
X028375Y028750
X028375Y032750
X031750Y004500
X031750Y005875
X033125Y004500
X033125Y005875
X033125Y044125
X033730Y040125
X034125Y044125
X035125Y044125
X037125Y004500
X037125Y005875
X038625Y006625
X038625Y010625
X039375Y012250
X039375Y013625
X039375Y014750
X039750Y034625
X040000Y006625
X040000Y010625
X040000Y041375
X040000Y045375
X042000Y041375
X042000Y045375
X042875Y008625
X042875Y009625
X042875Y010625
X043375Y012250
X043375Y013625
X043375Y014750
X043750Y034625
X043875Y041500
X043875Y045500
X044625Y029000
X044625Y033000
X045625Y041500
X045625Y045500
X046375Y008625
X046375Y009625
X046375Y010625
X048250Y031750
X048250Y033250
X048250Y036250
X048250Y037625
X048375Y040125
X048375Y041500
X048250Y043875
X048250Y045375
X050125Y008625
X050125Y009625
X050125Y010625
X052250Y031750
X052250Y033250
X052250Y036250
X052250Y037625
X052250Y043875
X052250Y045375
X052375Y040125
X052375Y041500
T2C0.031F200S100
X001375Y027313
X001375Y028100
X001375Y028888
X001375Y029675
X001375Y030463
X001375Y031250
X001375Y040563
X001375Y041350
X001375Y042138
X001375Y042925
X001375Y043713
X001375Y044500
X001500Y010188
X001500Y010975
X001500Y011763
X001500Y012550
X001500Y013338
X001500Y014125
X010078Y012047
X010125Y010031
X010125Y011015
X010125Y014281
X010125Y015265
X010078Y016297
X010125Y034656
X010125Y035640
X010078Y036672
X010125Y038656
X010125Y039640
X010078Y040672
X010125Y042531
X010125Y043515
X010078Y044547
X010125Y046406
X010125Y047390
X010078Y048422
X010203Y003672
X010250Y001656
X010250Y002640
X010250Y005906
X010250Y006890
X010203Y007922
X010250Y018281
X010250Y019265
X010203Y020297
X010250Y022406
X010250Y023390
X010203Y024422
X010250Y026406
X010250Y027390
X010203Y028422
X010250Y030531
X010250Y031515
X010203Y032547
X013125Y010000
X013125Y011000
X013125Y012000
X013125Y014250
X013125Y015250
X013125Y016250
X013250Y001625
X013250Y002625
X013250Y003625
X013250Y005875
X013250Y006875
X013250Y007875
X013250Y018250
X013250Y019250
X013250Y020250
X013250Y022375
X013250Y023375
X013250Y024375
X013250Y026375
X013250Y027375
X013250Y028375
X013250Y030500
X013250Y031500
X013250Y032500
X013125Y034625
X013125Y035625
X013125Y036625
X013125Y038625
X013125Y039625
X013125Y040625
X013125Y042500
X013125Y043500
X013125Y044500
X013125Y046375
X013125Y047375
X013125Y048375
X022463Y049625
X022875Y029125
X023078Y007328
X023125Y010375
X023250Y049625
X023662Y029125
X024110Y007375
X024125Y010375
X024450Y029125
X025094Y007375
X025125Y010375
X025237Y029125
X026828Y007453
X026875Y010500
X027860Y007500
X027875Y010500
X028844Y007500
X028875Y010500
X029500Y002125
X030287Y002125
X030828Y007578
X030875Y010625
X031075Y002125
X031860Y007625
X031862Y002125
X031875Y010625
X032650Y002125
X032844Y007625
X032875Y010625
X033437Y002125
X034953Y007578
X035000Y010625
X035985Y007625
X036000Y010625
X036969Y007625
X037000Y010625
X039750Y019000
X039750Y020000
X039750Y021000
X039750Y022000
X039750Y023000
X039750Y024000
X039750Y025000
X039750Y026000
X039953Y032422
X039963Y050250
X040000Y029422
X040000Y030406
X040000Y031390
X040375Y002125
X040750Y050250
X041162Y002125
X041950Y002125
X042737Y002125
X042750Y019000
X042750Y020000
X042750Y021000
X042750Y022000
X042750Y023000
X042750Y024000
X042750Y025000
X042750Y026000
X042953Y029422
X042953Y030406
X042953Y031390
X042953Y032374
X043088Y050250
X043875Y050250
X045625Y002125
X046338Y050250
X046412Y002125
X047125Y050250
X047200Y002125
X049463Y050250
X050250Y050250
X050375Y002125
X051162Y002125
X051950Y002125
X052737Y002125
X054750Y017500
X054750Y018287
X054750Y019075
X054750Y021625
X054750Y022412
X054875Y005500
X054875Y006287
X054875Y007075
X054875Y009250
X054875Y010037
X054875Y010825
X054875Y011612
X054875Y028625
X054875Y029412
X054875Y031625
X054875Y032412
X054875Y033200
X055000Y036000
X055000Y036787
X055000Y037575
X055000Y039875
X055000Y040662
X055000Y041450
X055000Y043750
X055000Y044537
X055000Y045325
T3C0.035F200S100
X017500Y044375
X021250Y038750
X021250Y040750
X021375Y013250
X021375Y014250
X021375Y015250
X021375Y016250
X021375Y017250
X021375Y018250
X021375Y019250
X021375Y020250
X021375Y021250
X021375Y022250
X021375Y023250
X021375Y024250
X021875Y025250
X022500Y044375
X022875Y025250
X023875Y025250
X024000Y040000
X024375Y013250
X024875Y025250
X025000Y040000
X025375Y013250
X025875Y025250
X026125Y045875
X026125Y047875
X026375Y013250
X026875Y025250
X027375Y013250
X027375Y014250
X027375Y015250
X027375Y016250
X027375Y017250
X027375Y018250
X027375Y019250
X027375Y020250
X027375Y021250
X027375Y022250
X027375Y023250
X027375Y024250
X028125Y045875
X028125Y047875
X030500Y013250
X030500Y014250
X030500Y015250
X030500Y016250
X030500Y017250
X030500Y018250
X030500Y019250
X030500Y020250
X030500Y021250
X030500Y022250
X030500Y023250
X030500Y024250
X030500Y025250
X030500Y026250
X030500Y027250
X030500Y028250
X030500Y029250
X030500Y030250
X030500Y031250
X030500Y032250
X030500Y033250
X030500Y034250
X030500Y035250
X030500Y036250
X036125Y039750
X036500Y013250
X036500Y014250
X036500Y015250
X036500Y016250
X036500Y017250
X036500Y018250
X036500Y019250
X036500Y020250
X036500Y021250
X036500Y022250
X036500Y023250
X036500Y024250
X036500Y025250
X036500Y026250
X036500Y027250
X036500Y028250
X036500Y029250
X036500Y030250
X036500Y031250
X036500Y032250
X036500Y033250
X036500Y034250
X036500Y035250
X036500Y036250
X038125Y039750
T5C0.043F200S100
X000784Y031801
X000784Y045051
X000909Y014676
X022324Y028534
X023801Y050215
X028949Y001534
X039824Y001534
X041301Y050840
X044426Y050840
X045074Y001534
X047676Y050840
X049824Y001534
X050801Y050840
X055340Y016949
X055340Y021074
X055465Y004949
X055465Y008699
X055465Y028074
X055465Y031074
X055590Y035449
X055590Y039324
X055590Y043199
T6C0.137F200S100
X001250Y051125
X001375Y001375
X001625Y022625
X015944Y048647
X019881Y048647
X056250Y025250
X056375Y001375
X056375Y051250
M30
