%
T1C0.023F200S100
X005500Y024875
X005875Y038625
X006375Y037838
X007250Y015125
X009125Y011250
X010475Y004600
X011250Y005625
X011375Y005000
X011750Y008125
X012125Y015125
X012125Y015875
X012500Y038250
X013000Y022125
X013500Y010000
X014100Y017547
X014828Y012307
X015416Y017359
X015604Y014037
X015917Y012283
X016375Y004500
X016375Y006375
X016625Y007500
X017108Y017421
X017250Y043250
X017375Y028250
X017750Y042500
X017750Y047500
X018000Y044000
X018236Y015541
X018299Y014037
X018612Y012157
X019375Y039856
X020000Y045875
X020500Y016669
X021125Y039662
X021244Y021244
X022625Y020000
X023125Y019176
X023500Y038039
X024440Y038289
X025125Y009875
X025443Y035657
X028965Y041465
X029500Y024750
X029625Y025875
X030500Y016500
X031000Y018111
T4C0.039F200S100
X002625Y000875
X002625Y004875
X004375Y006625
X004375Y010625
X004375Y028875
X004375Y030125
X004500Y020500
X004500Y022000
X004500Y023375
X008375Y028875
X008375Y030125
X008500Y020500
X008500Y022000
X008500Y023375
X008750Y032000
X008750Y036000
X008750Y044500
X010750Y006375
X010750Y010375
X011125Y046625
X012125Y046625
X012625Y006375
X012625Y010375
X013125Y046625
X014100Y013037
X014100Y014037
X014100Y015037
X016230Y044500
X016669Y013037
X016669Y014037
X016669Y015037
X018236Y017860
X018236Y021860
X019239Y012975
X019239Y013975
X019239Y014975
X019364Y017860
X020367Y017860
X020367Y021860
X019364Y021860
X021500Y028375
X021500Y032375
X021750Y012125
X021750Y016125
X021750Y022750
X021750Y026750
X021875Y038750
X021875Y042750
X021875Y044375
X021875Y048375
X022250Y006375
X022250Y010375
X022821Y034404
X023440Y037036
X024440Y037036
X024451Y019113
X025440Y037036
X026448Y021181
X026821Y034404
X027448Y021181
X028125Y039000
X028125Y043000
X028125Y044750
X028125Y048750
X028375Y028750
X028375Y032750
X028448Y021181
X028451Y019113
X028500Y006500
X028500Y010500
X028500Y012000
X028500Y016000
X028500Y023250
X028500Y027250
T3C0.035F200S100
X002500Y008375
X002500Y010375
X003750Y048500
X003750Y050500
X004750Y012375
X004750Y017375
X004875Y041250
X004875Y043250
X005750Y048500
X005750Y050500
X006375Y012375
X006375Y017375
X006875Y044500
X006875Y045500
X008125Y012375
X008125Y017375
X010375Y019125
X010375Y020125
X010375Y021125
X010375Y022125
X010375Y023125
X010375Y024125
X010375Y025125
X010375Y026125
X010375Y027125
X010375Y028125
X010375Y029125
X010375Y030125
X010375Y031125
X010375Y032125
X010375Y033125
X010375Y034125
X010375Y035125
X010375Y036125
X010375Y037125
X010375Y038125
X010375Y039125
X010375Y040125
X010375Y041125
X010375Y042125
X016375Y019125
X016375Y020125
X016375Y021125
X016375Y022125
X016375Y023125
X016375Y024125
X016375Y025125
X016375Y026125
X016375Y027125
X016375Y028125
X016375Y029125
X016375Y030125
X016375Y031125
X016375Y032125
X016375Y033125
X016375Y034125
X016375Y035125
X016375Y036125
X016375Y037125
X016375Y038125
X016375Y039125
X016375Y040125
X016375Y041125
X016375Y042125
X018750Y045875
X018750Y047875
X020375Y024500
X020375Y026500
X020375Y038750
X020375Y040750
X020750Y008375
X020750Y010375
T2C0.031F200S100
X002125Y015800
X002125Y016588
X002125Y017375
X002125Y021263
X002125Y022050
X002125Y022838
X002125Y023625
X002125Y027388
X002125Y028175
X002125Y028963
X002125Y029750
X004078Y035422
X002125Y037050
X002125Y037838
X002125Y038625
X004125Y032422
X004125Y033406
X004125Y034390
X005953Y010172
X006000Y007172
X006000Y008156
X006000Y009140
X007078Y032422
X007078Y033406
X007078Y034390
X007078Y035374
X008953Y007172
X008953Y008156
X008953Y009140
X008953Y010124
X014828Y010297
X014875Y007297
X014875Y008281
X014875Y009265
X017828Y007297
X017828Y008281
X017828Y009265
X017828Y010249
X018763Y035125
X019550Y035125
X020338Y035125
X021125Y035125
X023453Y032297
X023500Y029297
X023500Y030281
X023500Y031265
X023500Y039672
X023500Y040656
X023500Y041640
X023453Y042672
X023500Y045047
X023500Y046031
X023500Y047015
X023453Y048047
X023578Y027047
X023625Y024047
X023625Y025031
X023625Y026015
X023703Y010047
X023750Y007047
X023750Y008031
X023750Y009015
X023828Y015422
X023875Y012422
X023875Y013406
X023875Y014390
X026453Y029297
X026453Y030281
X026453Y031265
X026453Y032249
X026453Y039672
X026453Y040656
X026453Y041640
X026453Y042624
X026453Y045047
X026453Y046031
X026453Y047015
X026453Y047999
X026578Y024047
X026578Y025031
X026578Y026015
X026578Y026999
X026703Y007047
X026703Y008031
X026703Y009015
X026703Y009999
X026828Y012422
X026828Y013406
X026828Y014390
X026828Y015374
T5C0.042F200S100
X007750Y003250
X008295Y002130
X008840Y003250
X009385Y002130
X009930Y003250
X010475Y002130
X011020Y003250
X011565Y002130
X012110Y003250
X012655Y002130
X013200Y003250
X013745Y002130
X014290Y003250
X014835Y002130
X015380Y003250
X031500Y040375
X031500Y041465
X031500Y042555
X031500Y043645
X031500Y044735
X031500Y045825
X031500Y046915
X031500Y048005
X031625Y024000
X031625Y025090
X031625Y026180
X031625Y027270
X031625Y028360
X031625Y029450
X031625Y030540
X031625Y031630
X031750Y007500
X031750Y008590
X031750Y009680
X031750Y010770
X031750Y011860
X031750Y012950
X031750Y014040
X031750Y015130
X032620Y040920
X032620Y042010
X032620Y043100
X032620Y044190
X032620Y045280
X032620Y046370
X032620Y047460
X032745Y024545
X032745Y025635
X032745Y026725
X032745Y027815
X032745Y028905
X032745Y029995
X032745Y031085
X032870Y008045
X032870Y009135
X032870Y010225
X032870Y011315
X032870Y012405
X032870Y013495
X032870Y014585
T7C0.120F200S100
X005005Y002690
X018125Y002690
X032060Y037630
X032060Y050750
X032185Y021255
X032185Y034375
X032310Y004755
X032310Y017875
T6C0.043F200S100
X001534Y017926
X001534Y024176
X001534Y030301
X001534Y039176
X021676Y035715
T8C0.137F200S100
X000689Y001379
X000689Y033527
X000752Y053580
X027887Y036535
X033715Y001441
X033777Y053643
M30
